<?xml version="1.0" encoding="UTF-8" standalone="no"?>
<svg
   xmlns:dc="http://purl.org/dc/elements/1.1/"
   xmlns:cc="http://creativecommons.org/ns#"
   xmlns:rdf="http://www.w3.org/1999/02/22-rdf-syntax-ns#"
   xmlns:svg="http://www.w3.org/2000/svg"
   xmlns="http://www.w3.org/2000/svg"
   id="svg531"
   version="1.1"
   viewBox="0 0 53.373 22.847226"
   height="86.351723"
   width="201.72473">
  <defs
     id="defs525">
    <filter
       height="1.2768335"
       y="-0.13841675"
       width="1.2901458"
       x="-0.14507286"
       id="filter4942"
       style="color-interpolation-filters:sRGB">
      <feGaussianBlur
         id="feGaussianBlur4944"
         stdDeviation="3.4568142" />
    </filter>
  </defs>
  <metadata
     id="metadata528">
    <rdf:RDF>
      <cc:Work
         rdf:about="">
        <dc:format>image/svg+xml</dc:format>
        <dc:type
           rdf:resource="http://purl.org/dc/dcmitype/StillImage" />
        <dc:title></dc:title>
      </cc:Work>
    </rdf:RDF>
  </metadata>
  <g
     transform="translate(259.51983,70.477183)"
     id="layer1">
    <g
       transform="matrix(0.26458333,0,0,0.26458333,-324.65319,-154.34068)"
       id="g4223"
       style="font-style:oblique;font-variant:normal;font-weight:bold;font-stretch:normal;font-size:83.74663544px;line-height:125%;font-family:Arial;-inkscape-font-specification:'Arial Bold Oblique';letter-spacing:-11.35999966px;word-spacing:1.75000012px;fill:#fd2435;fill-opacity:1;stroke:#000000;stroke-width:7.4000001;stroke-miterlimit:4;stroke-dasharray:none;stroke-opacity:1">
      <path
         id="path4225"
         d="m 270.6875,329.4375 -2.125,10.03125 12.34375,-0.15625 h 7.15625 c 3.62572,5e-5 6.14487,0.25935 7.5625,0.75 2.01729,0.70884 3.71701,2.14128 5.09375,4.28125 1.37665,2.14005 2.06245,5.30978 2.0625,9.5625 -5e-5,4.98884 -0.83711,9.31975 -2.5,13 -1.66299,3.68029 -3.69879,6.6356 -6.125,8.84375 -1.69024,1.52664 -3.56282,2.56616 -5.59375,3.125 -2.03099,0.55887 -5.28716,0.84376 -9.8125,0.84375 h -6.25 l 5.01739,-21.75 -12.84375,0.125 L 258,389.375 h 21.28125 c 5.31592,0 9.2499,-0.30651 11.8125,-0.90625 4.52533,-1.09045 8.23127,-2.77255 11.09375,-5.0625 3.73475,-2.94421 6.81405,-6.93505 9.28125,-11.9375 2.46709,-5.00243 3.71869,-10.72655 3.71875,-17.1875 -6e-5,-2.99871 -0.31055,-5.75954 -0.9375,-8.28125 -0.62707,-2.52162 -1.52896,-4.7519 -2.6875,-6.6875 -1.15866,-1.9355 -2.53027,-3.592 -4.125,-4.96875 -1.59483,-1.37664 -3.36337,-2.42412 -5.3125,-3.1875 -1.94923,-0.76325 -4.17552,-1.28583 -6.65625,-1.53125 -1.25406,-0.13626 -4.12693,-0.18744 -8.625,-0.1875 z"
         style="fill:#fd2435;fill-opacity:1;stroke:#000000;stroke-width:7.4000001;stroke-miterlimit:4;stroke-dasharray:none;stroke-opacity:1" />
    </g>
    <g
       id="text6760"
       style="font-style:oblique;font-variant:normal;font-weight:bold;font-stretch:normal;font-size:83.74663544px;line-height:125%;font-family:Arial;-inkscape-font-specification:'Arial Bold Oblique';letter-spacing:-11.35999966px;word-spacing:1.75000012px;fill:#ffffff;fill-opacity:1;stroke:#ffffff;stroke-width:7.4000001;stroke-miterlimit:4;stroke-dasharray:none;stroke-opacity:1"
       transform="matrix(0.26458333,0,0,0.26458333,-295.85709,-92.93712)">
      <path
         id="path4965"
         d="m 195.40253,156.11812 12.55382,-59.947544 h 12.30846 L 209.83737,146.0996 h 30.50537 l -2.08549,10.01852 z" />
      <path
         id="path4967"
         d="m 262.1683,142.86914 h -23.7582 l -7.19698,13.24898 h -12.67649 l 33.8994,-59.947544 h 13.69879 l 9.73227,59.947544 h -11.69508 z m -1.513,-9.97763 -3.47581,-24.12623 -14.47574,24.12623 z" />
      <path
         id="path4969"
         d="m 319.99742,156.11812 h -11.49063 l -16.1932,-40.27853 -8.42373,40.27853 h -11.49063 l 12.51293,-59.947544 h 11.53152 l 16.23409,40.114964 8.38284,-40.114964 h 11.44973 z" />
    </g>
    <g
       style="font-style:oblique;font-variant:normal;font-weight:bold;font-stretch:normal;font-size:83.74663544px;line-height:125%;font-family:Arial;-inkscape-font-specification:'Arial Bold Oblique';letter-spacing:-11.35999966px;word-spacing:1.75000012px;fill:#fd2435;fill-opacity:1;stroke:#fd2435;stroke-width:7.4000001;stroke-miterlimit:4;stroke-dasharray:none;stroke-opacity:1"
       id="g6768"
       transform="matrix(0.26458333,0,0,0.26458333,-325.05809,-154.91661)">
      <path
         style="fill:#fd2435;fill-opacity:1;stroke:#fd2435;stroke-width:7.4000001;stroke-miterlimit:4;stroke-dasharray:none;stroke-opacity:1"
         d="m 270.6875,329.4375 -2.125,10.03125 12.34375,-0.15625 h 7.15625 c 3.62572,5e-5 6.14487,0.25935 7.5625,0.75 2.01729,0.70884 3.71701,2.14128 5.09375,4.28125 1.37665,2.14005 2.06245,5.30978 2.0625,9.5625 -5e-5,4.98884 -0.83711,9.31975 -2.5,13 -1.66299,3.68029 -3.69879,6.6356 -6.125,8.84375 -1.69024,1.52664 -3.56282,2.56616 -5.59375,3.125 -2.03099,0.55887 -5.28716,0.84376 -9.8125,0.84375 h -6.25 l 5.01739,-21.75 -12.84375,0.125 L 258,389.375 h 21.28125 c 5.31592,0 9.2499,-0.30651 11.8125,-0.90625 4.52533,-1.09045 8.23127,-2.77255 11.09375,-5.0625 3.73475,-2.94421 6.81405,-6.93505 9.28125,-11.9375 2.46709,-5.00243 3.71869,-10.72655 3.71875,-17.1875 -6e-5,-2.99871 -0.31055,-5.75954 -0.9375,-8.28125 -0.62707,-2.52162 -1.52896,-4.7519 -2.6875,-6.6875 -1.15866,-1.9355 -2.53027,-3.592 -4.125,-4.96875 -1.59483,-1.37664 -3.36337,-2.42412 -5.3125,-3.1875 -1.94923,-0.76325 -4.17552,-1.28583 -6.65625,-1.53125 -1.25406,-0.13626 -4.12693,-0.18744 -8.625,-0.1875 z"
         id="path6770" />
    </g>
    <text
       xml:space="preserve"
       style="font-style:normal;font-variant:normal;font-weight:normal;font-stretch:normal;font-size:3.17499995px;line-height:0%;font-family:Arial;-inkscape-font-specification:Arial;letter-spacing:0px;word-spacing:0px;fill:#ffffff;fill-opacity:1;stroke:none;stroke-width:0.26458332"
       x="-247.16733"
       y="-47.960941"
       id="text6772"
       transform="scale(0.99510289,1.0049212)"><tspan
         id="tspan6774"
         x="-247.16733"
         y="-47.960941"
         style="font-style:oblique;font-variant:normal;font-weight:normal;font-stretch:normal;font-size:2.96637082px;line-height:1.25;font-family:Arial;-inkscape-font-specification:'Arial Oblique';fill:#ffffff;fill-opacity:1;stroke-width:0.26458332">DISTRIBUTE YOUR FILES</tspan></text>
    <g
       transform="matrix(0.26458333,0,0,0.26458333,-325.05809,-154.91661)"
       id="g4866"
       style="font-style:oblique;font-variant:normal;font-weight:bold;font-stretch:normal;font-size:83.74663544px;line-height:125%;font-family:Arial;-inkscape-font-specification:'Arial Bold Oblique';letter-spacing:-11.35999966px;word-spacing:1.75000012px;fill:#fd2435;fill-opacity:1;stroke:#fd2435;stroke-width:7.4000001;stroke-miterlimit:4;stroke-dasharray:none;stroke-opacity:1;filter:url(#filter4942)">
      <path
         id="path4868"
         d="m 270.6875,329.4375 -2.125,10.03125 12.34375,-0.15625 h 7.15625 c 3.62572,5e-5 6.14487,0.25935 7.5625,0.75 2.01729,0.70884 3.71701,2.14128 5.09375,4.28125 1.37665,2.14005 2.06245,5.30978 2.0625,9.5625 -5e-5,4.98884 -0.83711,9.31975 -2.5,13 -1.66299,3.68029 -3.69879,6.6356 -6.125,8.84375 -1.69024,1.52664 -3.56282,2.56616 -5.59375,3.125 -2.03099,0.55887 -5.28716,0.84376 -9.8125,0.84375 h -6.25 l 5.01739,-21.75 -12.84375,0.125 L 258,389.375 h 21.28125 c 5.31592,0 9.2499,-0.30651 11.8125,-0.90625 4.52533,-1.09045 8.23127,-2.77255 11.09375,-5.0625 3.73475,-2.94421 6.81405,-6.93505 9.28125,-11.9375 2.46709,-5.00243 3.71869,-10.72655 3.71875,-17.1875 -6e-5,-2.99871 -0.31055,-5.75954 -0.9375,-8.28125 -0.62707,-2.52162 -1.52896,-4.7519 -2.6875,-6.6875 -1.15866,-1.9355 -2.53027,-3.592 -4.125,-4.96875 -1.59483,-1.37664 -3.36337,-2.42412 -5.3125,-3.1875 -1.94923,-0.76325 -4.17552,-1.28583 -6.65625,-1.53125 -1.25406,-0.13626 -4.12693,-0.18744 -8.625,-0.1875 z"
         style="fill:#fd2435;fill-opacity:1;stroke:#fd2435;stroke-width:7.4000001;stroke-miterlimit:4;stroke-dasharray:none;stroke-opacity:1" />
    </g>
  </g>
</svg>
